# ProBuilder 5.0.3
# https://unity3d.com/unity/features/worldbuilding/probuilder
# 02/02/2022 04:43:27

mtllib ./Plane.mtl
o Plane

g Plane
v 0.5 0 -0.5
v 0.5 0 -0.4166667
v 0.4166667 0 -0.5
v 0.4166667 0 -0.4166667
v 0.5 0 -0.3333333
v 0.4166667 0 -0.3333333
v 0.5 0 -0.25
v 0.4166667 0 -0.25
v 0.5 0 -0.1666667
v 0.4166667 0 -0.1666667
v 0.5 0 -0.08333334
v 0.4166667 0 -0.08333334
v 0.5 0 0
v 0.4166667 0 0
v 0.5 0 0.08333334
v 0.4166667 0 0.08333334
v 0.5 0 0.1666667
v 0.4166667 0 0.1666667
v 0.5 0 0.25
v 0.4166667 0 0.25
v 0.5 0 0.3333333
v 0.4166667 0 0.3333333
v 0.5 0 0.4166667
v 0.4166667 0 0.4166667
v 0.5 0 0.5
v 0.4166667 0 0.5
v 0.3333333 0 -0.5
v 0.3333333 0 -0.4166667
v 0.3333333 0 -0.3333333
v 0.3333333 0 -0.25
v 0.3333333 0 -0.1666667
v 0.3333333 0 -0.08333334
v 0.3333333 0 0
v 0.3333333 0 0.08333334
v 0.3333333 0 0.1666667
v 0.3333333 0 0.25
v 0.3333333 0 0.3333333
v 0.3333333 0 0.4166667
v 0.3333333 0 0.5
v 0.25 0 -0.5
v 0.25 0 -0.4166667
v 0.25 0 -0.3333333
v 0.25 0 -0.25
v 0.25 0 -0.1666667
v 0.25 0 -0.08333334
v 0.25 0 0
v 0.25 0 0.08333334
v 0.25 0 0.1666667
v 0.25 0 0.25
v 0.25 0 0.3333333
v 0.25 0 0.4166667
v 0.25 0 0.5
v 0.1666667 0 -0.5
v 0.1666667 0 -0.4166667
v 0.1666667 0 -0.3333333
v 0.1666667 0 -0.25
v 0.1666667 0 -0.1666667
v 0.1666667 0 -0.08333334
v 0.1666667 0 0
v 0.1666667 0 0.08333334
v 0.1666667 0 0.1666667
v 0.1666667 0 0.25
v 0.1666667 0 0.3333333
v 0.1666667 0 0.4166667
v 0.1666667 0 0.5
v 0.08333334 0 -0.5
v 0.08333334 0 -0.4166667
v 0.08333334 0 -0.3333333
v 0.08333334 0 -0.25
v 0.08333334 0 -0.1666667
v 0.08333334 0 -0.08333334
v 0.08333334 0 0
v 0.08333334 0 0.08333334
v 0.08333334 0 0.1666667
v 0.08333334 0 0.25
v 0.08333334 0 0.3333333
v 0.08333334 0 0.4166667
v 0.08333334 0 0.5
v 0 0 -0.5
v 0 0 -0.4166667
v 0 0 -0.3333333
v 0 0 -0.25
v 0 0 -0.1666667
v 0 0 -0.08333334
v 0 0 0
v 0 0 0.08333334
v 0 0 0.1666667
v 0 0 0.25
v 0 0 0.3333333
v 0 0 0.4166667
v 0 0 0.5
v -0.08333334 0 -0.5
v -0.08333334 0 -0.4166667
v -0.08333334 0 -0.3333333
v -0.08333334 0 -0.25
v -0.08333334 0 -0.1666667
v -0.08333334 0 -0.08333334
v -0.08333334 0 0
v -0.08333334 0 0.08333334
v -0.08333334 0 0.1666667
v -0.08333334 0 0.25
v -0.08333334 0 0.3333333
v -0.08333334 0 0.4166667
v -0.08333334 0 0.5
v -0.1666667 0 -0.5
v -0.1666667 0 -0.4166667
v -0.1666667 0 -0.3333333
v -0.1666667 0 -0.25
v -0.1666667 0 -0.1666667
v -0.1666667 0 -0.08333334
v -0.1666667 0 0
v -0.1666667 0 0.08333334
v -0.1666667 0 0.1666667
v -0.1666667 0 0.25
v -0.1666667 0 0.3333333
v -0.1666667 0 0.4166667
v -0.1666667 0 0.5
v -0.25 0 -0.5
v -0.25 0 -0.4166667
v -0.25 0 -0.3333333
v -0.25 0 -0.25
v -0.25 0 -0.1666667
v -0.25 0 -0.08333334
v -0.25 0 0
v -0.25 0 0.08333334
v -0.25 0 0.1666667
v -0.25 0 0.25
v -0.25 0 0.3333333
v -0.25 0 0.4166667
v -0.25 0 0.5
v -0.3333333 0 -0.5
v -0.3333333 0 -0.4166667
v -0.3333333 0 -0.3333333
v -0.3333333 0 -0.25
v -0.3333333 0 -0.1666667
v -0.3333333 0 -0.08333334
v -0.3333333 0 0
v -0.3333333 0 0.08333334
v -0.3333333 0 0.1666667
v -0.3333333 0 0.25
v -0.3333333 0 0.3333333
v -0.3333333 0 0.4166667
v -0.3333333 0 0.5
v -0.4166667 0 -0.5
v -0.4166667 0 -0.4166667
v -0.4166667 0 -0.3333333
v -0.4166667 0 -0.25
v -0.4166667 0 -0.1666667
v -0.4166667 0 -0.08333334
v -0.4166667 0 0
v -0.4166667 0 0.08333334
v -0.4166667 0 0.1666667
v -0.4166667 0 0.25
v -0.4166667 0 0.3333333
v -0.4166667 0 0.4166667
v -0.4166667 0 0.5
v -0.5 0 -0.5
v -0.5 0 -0.4166667
v -0.5 0 -0.3333333
v -0.5 0 -0.25
v -0.5 0 -0.1666667
v -0.5 0 -0.08333334
v -0.5 0 0
v -0.5 0 0.08333334
v -0.5 0 0.1666667
v -0.5 0 0.25
v -0.5 0 0.3333333
v -0.5 0 0.4166667
v -0.5 0 0.5

vt -0.5 -0.5
vt -0.5 -0.4166667
vt -0.4166667 -0.5
vt -0.4166667 -0.4166667
vt -0.5 -0.3333333
vt -0.4166667 -0.3333333
vt -0.5 -0.25
vt -0.4166667 -0.25
vt -0.5 -0.1666667
vt -0.4166667 -0.1666667
vt -0.5 -0.08333334
vt -0.4166667 -0.08333334
vt -0.5 0
vt -0.4166667 0
vt -0.5 0.08333334
vt -0.4166667 0.08333334
vt -0.5 0.1666667
vt -0.4166667 0.1666667
vt -0.5 0.25
vt -0.4166667 0.25
vt -0.5 0.3333333
vt -0.4166667 0.3333333
vt -0.5 0.4166667
vt -0.4166667 0.4166667
vt -0.5 0.5
vt -0.4166667 0.5
vt -0.3333333 -0.5
vt -0.3333333 -0.4166667
vt -0.3333333 -0.3333333
vt -0.3333333 -0.25
vt -0.3333333 -0.1666667
vt -0.3333333 -0.08333334
vt -0.3333333 0
vt -0.3333333 0.08333334
vt -0.3333333 0.1666667
vt -0.3333333 0.25
vt -0.3333333 0.3333333
vt -0.3333333 0.4166667
vt -0.3333333 0.5
vt -0.25 -0.5
vt -0.25 -0.4166667
vt -0.25 -0.3333333
vt -0.25 -0.25
vt -0.25 -0.1666667
vt -0.25 -0.08333334
vt -0.25 0
vt -0.25 0.08333334
vt -0.25 0.1666667
vt -0.25 0.25
vt -0.25 0.3333333
vt -0.25 0.4166667
vt -0.25 0.5
vt -0.1666667 -0.5
vt -0.1666667 -0.4166667
vt -0.1666667 -0.3333333
vt -0.1666667 -0.25
vt -0.1666667 -0.1666667
vt -0.1666667 -0.08333334
vt -0.1666667 0
vt -0.1666667 0.08333334
vt -0.1666667 0.1666667
vt -0.1666667 0.25
vt -0.1666667 0.3333333
vt -0.1666667 0.4166667
vt -0.1666667 0.5
vt -0.08333334 -0.5
vt -0.08333334 -0.4166667
vt -0.08333334 -0.3333333
vt -0.08333334 -0.25
vt -0.08333334 -0.1666667
vt -0.08333334 -0.08333334
vt -0.08333334 0
vt -0.08333334 0.08333334
vt -0.08333334 0.1666667
vt -0.08333334 0.25
vt -0.08333334 0.3333333
vt -0.08333334 0.4166667
vt -0.08333334 0.5
vt 0 -0.5
vt 0 -0.4166667
vt 0 -0.3333333
vt 0 -0.25
vt 0 -0.1666667
vt 0 -0.08333334
vt 0 0
vt 0 0.08333334
vt 0 0.1666667
vt 0 0.25
vt 0 0.3333333
vt 0 0.4166667
vt 0 0.5
vt 0.08333334 -0.5
vt 0.08333334 -0.4166667
vt 0.08333334 -0.3333333
vt 0.08333334 -0.25
vt 0.08333334 -0.1666667
vt 0.08333334 -0.08333334
vt 0.08333334 0
vt 0.08333334 0.08333334
vt 0.08333334 0.1666667
vt 0.08333334 0.25
vt 0.08333334 0.3333333
vt 0.08333334 0.4166667
vt 0.08333334 0.5
vt 0.1666667 -0.5
vt 0.1666667 -0.4166667
vt 0.1666667 -0.3333333
vt 0.1666667 -0.25
vt 0.1666667 -0.1666667
vt 0.1666667 -0.08333334
vt 0.1666667 0
vt 0.1666667 0.08333334
vt 0.1666667 0.1666667
vt 0.1666667 0.25
vt 0.1666667 0.3333333
vt 0.1666667 0.4166667
vt 0.1666667 0.5
vt 0.25 -0.5
vt 0.25 -0.4166667
vt 0.25 -0.3333333
vt 0.25 -0.25
vt 0.25 -0.1666667
vt 0.25 -0.08333334
vt 0.25 0
vt 0.25 0.08333334
vt 0.25 0.1666667
vt 0.25 0.25
vt 0.25 0.3333333
vt 0.25 0.4166667
vt 0.25 0.5
vt 0.3333333 -0.5
vt 0.3333333 -0.4166667
vt 0.3333333 -0.3333333
vt 0.3333333 -0.25
vt 0.3333333 -0.1666667
vt 0.3333333 -0.08333334
vt 0.3333333 0
vt 0.3333333 0.08333334
vt 0.3333333 0.1666667
vt 0.3333333 0.25
vt 0.3333333 0.3333333
vt 0.3333333 0.4166667
vt 0.3333333 0.5
vt 0.4166667 -0.5
vt 0.4166667 -0.4166667
vt 0.4166667 -0.3333333
vt 0.4166667 -0.25
vt 0.4166667 -0.1666667
vt 0.4166667 -0.08333334
vt 0.4166667 0
vt 0.4166667 0.08333334
vt 0.4166667 0.1666667
vt 0.4166667 0.25
vt 0.4166667 0.3333333
vt 0.4166667 0.4166667
vt 0.4166667 0.5
vt 0.5 -0.5
vt 0.5 -0.4166667
vt 0.5 -0.3333333
vt 0.5 -0.25
vt 0.5 -0.1666667
vt 0.5 -0.08333334
vt 0.5 0
vt 0.5 0.08333334
vt 0.5 0.1666667
vt 0.5 0.25
vt 0.5 0.3333333
vt 0.5 0.4166667
vt 0.5 0.5

vn 0 1 0

usemtl DefaultHDMaterial
f 3/3/1 4/4/1 2/2/1 1/1/1
f 4/4/1 6/6/1 5/5/1 2/2/1
f 6/6/1 8/8/1 7/7/1 5/5/1
f 8/8/1 10/10/1 9/9/1 7/7/1
f 10/10/1 12/12/1 11/11/1 9/9/1
f 12/12/1 14/14/1 13/13/1 11/11/1
f 14/14/1 16/16/1 15/15/1 13/13/1
f 16/16/1 18/18/1 17/17/1 15/15/1
f 18/18/1 20/20/1 19/19/1 17/17/1
f 20/20/1 22/22/1 21/21/1 19/19/1
f 22/22/1 24/24/1 23/23/1 21/21/1
f 24/24/1 26/26/1 25/25/1 23/23/1
f 27/27/1 28/28/1 4/4/1 3/3/1
f 28/28/1 29/29/1 6/6/1 4/4/1
f 29/29/1 30/30/1 8/8/1 6/6/1
f 30/30/1 31/31/1 10/10/1 8/8/1
f 31/31/1 32/32/1 12/12/1 10/10/1
f 32/32/1 33/33/1 14/14/1 12/12/1
f 33/33/1 34/34/1 16/16/1 14/14/1
f 34/34/1 35/35/1 18/18/1 16/16/1
f 35/35/1 36/36/1 20/20/1 18/18/1
f 36/36/1 37/37/1 22/22/1 20/20/1
f 37/37/1 38/38/1 24/24/1 22/22/1
f 38/38/1 39/39/1 26/26/1 24/24/1
f 40/40/1 41/41/1 28/28/1 27/27/1
f 41/41/1 42/42/1 29/29/1 28/28/1
f 42/42/1 43/43/1 30/30/1 29/29/1
f 43/43/1 44/44/1 31/31/1 30/30/1
f 44/44/1 45/45/1 32/32/1 31/31/1
f 45/45/1 46/46/1 33/33/1 32/32/1
f 46/46/1 47/47/1 34/34/1 33/33/1
f 47/47/1 48/48/1 35/35/1 34/34/1
f 48/48/1 49/49/1 36/36/1 35/35/1
f 49/49/1 50/50/1 37/37/1 36/36/1
f 50/50/1 51/51/1 38/38/1 37/37/1
f 51/51/1 52/52/1 39/39/1 38/38/1
f 53/53/1 54/54/1 41/41/1 40/40/1
f 54/54/1 55/55/1 42/42/1 41/41/1
f 55/55/1 56/56/1 43/43/1 42/42/1
f 56/56/1 57/57/1 44/44/1 43/43/1
f 57/57/1 58/58/1 45/45/1 44/44/1
f 58/58/1 59/59/1 46/46/1 45/45/1
f 59/59/1 60/60/1 47/47/1 46/46/1
f 60/60/1 61/61/1 48/48/1 47/47/1
f 61/61/1 62/62/1 49/49/1 48/48/1
f 62/62/1 63/63/1 50/50/1 49/49/1
f 63/63/1 64/64/1 51/51/1 50/50/1
f 64/64/1 65/65/1 52/52/1 51/51/1
f 66/66/1 67/67/1 54/54/1 53/53/1
f 67/67/1 68/68/1 55/55/1 54/54/1
f 68/68/1 69/69/1 56/56/1 55/55/1
f 69/69/1 70/70/1 57/57/1 56/56/1
f 70/70/1 71/71/1 58/58/1 57/57/1
f 71/71/1 72/72/1 59/59/1 58/58/1
f 72/72/1 73/73/1 60/60/1 59/59/1
f 73/73/1 74/74/1 61/61/1 60/60/1
f 74/74/1 75/75/1 62/62/1 61/61/1
f 75/75/1 76/76/1 63/63/1 62/62/1
f 76/76/1 77/77/1 64/64/1 63/63/1
f 77/77/1 78/78/1 65/65/1 64/64/1
f 79/79/1 80/80/1 67/67/1 66/66/1
f 80/80/1 81/81/1 68/68/1 67/67/1
f 81/81/1 82/82/1 69/69/1 68/68/1
f 82/82/1 83/83/1 70/70/1 69/69/1
f 83/83/1 84/84/1 71/71/1 70/70/1
f 84/84/1 85/85/1 72/72/1 71/71/1
f 85/85/1 86/86/1 73/73/1 72/72/1
f 86/86/1 87/87/1 74/74/1 73/73/1
f 87/87/1 88/88/1 75/75/1 74/74/1
f 88/88/1 89/89/1 76/76/1 75/75/1
f 89/89/1 90/90/1 77/77/1 76/76/1
f 90/90/1 91/91/1 78/78/1 77/77/1
f 92/92/1 93/93/1 80/80/1 79/79/1
f 93/93/1 94/94/1 81/81/1 80/80/1
f 94/94/1 95/95/1 82/82/1 81/81/1
f 95/95/1 96/96/1 83/83/1 82/82/1
f 96/96/1 97/97/1 84/84/1 83/83/1
f 97/97/1 98/98/1 85/85/1 84/84/1
f 98/98/1 99/99/1 86/86/1 85/85/1
f 99/99/1 100/100/1 87/87/1 86/86/1
f 100/100/1 101/101/1 88/88/1 87/87/1
f 101/101/1 102/102/1 89/89/1 88/88/1
f 102/102/1 103/103/1 90/90/1 89/89/1
f 103/103/1 104/104/1 91/91/1 90/90/1
f 105/105/1 106/106/1 93/93/1 92/92/1
f 106/106/1 107/107/1 94/94/1 93/93/1
f 107/107/1 108/108/1 95/95/1 94/94/1
f 108/108/1 109/109/1 96/96/1 95/95/1
f 109/109/1 110/110/1 97/97/1 96/96/1
f 110/110/1 111/111/1 98/98/1 97/97/1
f 111/111/1 112/112/1 99/99/1 98/98/1
f 112/112/1 113/113/1 100/100/1 99/99/1
f 113/113/1 114/114/1 101/101/1 100/100/1
f 114/114/1 115/115/1 102/102/1 101/101/1
f 115/115/1 116/116/1 103/103/1 102/102/1
f 116/116/1 117/117/1 104/104/1 103/103/1
f 118/118/1 119/119/1 106/106/1 105/105/1
f 119/119/1 120/120/1 107/107/1 106/106/1
f 120/120/1 121/121/1 108/108/1 107/107/1
f 121/121/1 122/122/1 109/109/1 108/108/1
f 122/122/1 123/123/1 110/110/1 109/109/1
f 123/123/1 124/124/1 111/111/1 110/110/1
f 124/124/1 125/125/1 112/112/1 111/111/1
f 125/125/1 126/126/1 113/113/1 112/112/1
f 126/126/1 127/127/1 114/114/1 113/113/1
f 127/127/1 128/128/1 115/115/1 114/114/1
f 128/128/1 129/129/1 116/116/1 115/115/1
f 129/129/1 130/130/1 117/117/1 116/116/1
f 131/131/1 132/132/1 119/119/1 118/118/1
f 132/132/1 133/133/1 120/120/1 119/119/1
f 133/133/1 134/134/1 121/121/1 120/120/1
f 134/134/1 135/135/1 122/122/1 121/121/1
f 135/135/1 136/136/1 123/123/1 122/122/1
f 136/136/1 137/137/1 124/124/1 123/123/1
f 137/137/1 138/138/1 125/125/1 124/124/1
f 138/138/1 139/139/1 126/126/1 125/125/1
f 139/139/1 140/140/1 127/127/1 126/126/1
f 140/140/1 141/141/1 128/128/1 127/127/1
f 141/141/1 142/142/1 129/129/1 128/128/1
f 142/142/1 143/143/1 130/130/1 129/129/1
f 144/144/1 145/145/1 132/132/1 131/131/1
f 145/145/1 146/146/1 133/133/1 132/132/1
f 146/146/1 147/147/1 134/134/1 133/133/1
f 147/147/1 148/148/1 135/135/1 134/134/1
f 148/148/1 149/149/1 136/136/1 135/135/1
f 149/149/1 150/150/1 137/137/1 136/136/1
f 150/150/1 151/151/1 138/138/1 137/137/1
f 151/151/1 152/152/1 139/139/1 138/138/1
f 152/152/1 153/153/1 140/140/1 139/139/1
f 153/153/1 154/154/1 141/141/1 140/140/1
f 154/154/1 155/155/1 142/142/1 141/141/1
f 155/155/1 156/156/1 143/143/1 142/142/1
f 157/157/1 158/158/1 145/145/1 144/144/1
f 158/158/1 159/159/1 146/146/1 145/145/1
f 159/159/1 160/160/1 147/147/1 146/146/1
f 160/160/1 161/161/1 148/148/1 147/147/1
f 161/161/1 162/162/1 149/149/1 148/148/1
f 162/162/1 163/163/1 150/150/1 149/149/1
f 163/163/1 164/164/1 151/151/1 150/150/1
f 164/164/1 165/165/1 152/152/1 151/151/1
f 165/165/1 166/166/1 153/153/1 152/152/1
f 166/166/1 167/167/1 154/154/1 153/153/1
f 167/167/1 168/168/1 155/155/1 154/154/1
f 168/168/1 169/169/1 156/156/1 155/155/1

